<svg version="1.1" viewBox="0.0 0.0 960.0 540.0" fill="none" stroke="none" stroke-linecap="square" stroke-miterlimit="10" xmlns:xlink="http://www.w3.org/1999/xlink" xmlns="http://www.w3.org/2000/svg"><clipPath id="g6505ee5980_0_0.0"><path d="m0 0l960.0 0l0 540.0l-960.0 0l0 -540.0z" clip-rule="nonzero"/></clipPath><g clip-path="url(#g6505ee5980_0_0.0)"><path fill="#ffffff" d="m0 0l960.0 0l0 540.0l-960.0 0z" fill-rule="evenodd"/><path fill="#5b5b5b" d="m17.496273 507.77167l0 0c0 -8.349518 6.768608 -15.118134 15.118111 -15.118134l0 0c4.009571 0 7.8549232 1.592804 10.690117 4.428009c2.8351974 2.8351746 4.427994 6.680542 4.427994 10.6901245l0 0c0 8.349487 -6.768608 15.118103 -15.118111 15.118103l0 0c-8.349503 0 -15.118111 -6.7686157 -15.118111 -15.118103z" fill-rule="evenodd"/><path fill="#8e1b1b" d="m0 276.72266l0 0c0 -46.60205 20.86684 -89.664154 54.74018 -112.96518c33.873337 -23.301025 75.60702 -23.30101 109.48034 6.1035156E-5c33.87332 23.301056 54.740143 66.36316 54.740112 112.96524l-33.481277 -3.0517578E-5l0 0c3.0517578E-5 -34.64038 -14.485306 -66.6494 -37.99948 -83.969604c-23.51419 -17.32019 -52.48487 -17.320206 -75.99907 -3.0517578E-5c-23.51419 17.320175 -37.999535 49.329193 -37.999535 83.96954z" fill-rule="evenodd"/><path fill="#8e1b1b" d="m404.1147 276.3921l0 0c0 46.60205 -20.866852 89.664154 -54.740204 112.96518c-33.87332 23.301025 -75.606995 23.300995 -109.48033 -6.1035156E-5c-33.87332 -23.301056 -54.740128 -66.36316 -54.740097 -112.96521l33.481262 3.0517578E-5l0 0c-1.5258789E-5 34.64035 14.485306 66.64938 37.99948 83.969574c23.51419 17.32019 52.484863 17.32022 75.999084 3.0517578E-5c23.51419 -17.32016 37.99951 -49.329193 37.99951 -83.96954z" fill-rule="evenodd"/><path fill="#8e1b1b" d="m370.53143 276.72266l0 0c0 -46.60205 20.866821 -89.664154 54.740173 -112.96518c33.873352 -23.301025 75.607025 -23.30101 109.48035 6.1035156E-5c33.87329 23.301056 54.740112 66.36316 54.740112 112.96524l-33.481262 -3.0517578E-5l0 0c0 -34.64038 -14.485352 -66.6494 -37.99951 -83.969604c-23.51419 -17.32019 -52.484863 -17.320206 -75.999054 -3.0517578E-5c-23.51419 17.320175 -37.999542 49.329193 -37.999542 83.96954z" fill-rule="evenodd"/><path fill="#8e1b1b" d="m774.64624 276.3921l0 0c0 46.60205 -20.866821 89.664154 -54.740173 112.96518c-33.873352 23.301025 -75.607056 23.300995 -109.48035 -6.1035156E-5c-33.873352 -23.301056 -54.740173 -66.36316 -54.740112 -112.96521l33.481262 3.0517578E-5l0 0c0 34.64035 14.485291 66.64938 37.99951 83.969574c23.51416 17.32019 52.484863 17.32022 75.99902 3.0517578E-5c23.514221 -17.32016 37.999573 -49.329193 37.999573 -83.96954z" fill-rule="evenodd"/><path fill="#8e1b1b" d="m741.0533 276.72266l0 0c0 -46.60205 20.866882 -89.664154 54.740234 -112.96518c33.87329 -23.301025 75.606995 -23.30101 109.480286 6.1035156E-5c33.873352 23.301056 54.740173 66.36316 54.740112 112.96524l-33.481262 -3.0517578E-5l0 0c6.1035156E-5 -34.64038 -14.485291 -66.6494 -37.99945 -83.969604c-23.514221 -17.32019 -52.484863 -17.320206 -75.999084 -3.0517578E-5c-23.514221 17.320175 -37.99951 49.329193 -37.99951 83.96954z" fill-rule="evenodd"/><path fill="#000000" fill-opacity="0.0" d="m46.302887 279.37225c0 -20.107391 6.6856537 -39.391403 18.586006 -53.60942c11.90049 -14.218018 28.040886 -22.20575 44.870575 -22.20575c16.829689 0 32.970222 7.987732 44.870583 22.20575c11.900345 14.218185 18.585999 33.50203 18.585999 53.60942c0 20.107391 -6.6856537 39.391388 -18.585999 53.609406c-11.900497 14.218018 -28.040894 22.20575 -44.870583 22.20575c-16.829689 0 -32.970222 -7.987732 -44.870575 -22.20575c-11.9003525 -14.21817 -18.586006 -33.502014 -18.586006 -53.609406z" fill-rule="evenodd"/><path stroke="#8e1b1b" stroke-width="2.0" stroke-linejoin="round" stroke-linecap="butt" stroke-dasharray="2.0,6.0" d="m46.302887 279.37225c0 -20.107391 6.6856537 -39.391403 18.586006 -53.60942c11.90049 -14.218018 28.040886 -22.20575 44.870575 -22.20575c16.829689 0 32.970222 7.987732 44.870583 22.20575c11.900345 14.218185 18.585999 33.50203 18.585999 53.60942c0 20.107391 -6.6856537 39.391388 -18.585999 53.609406c-11.900497 14.218018 -28.040894 22.20575 -44.870583 22.20575c-16.829689 0 -32.970222 -7.987732 -44.870575 -22.20575c-11.9003525 -14.21817 -18.586006 -33.502014 -18.586006 -53.609406z" fill-rule="evenodd"/><path fill="#000000" fill-opacity="0.0" d="m231.92029 279.37225c0 -20.107391 6.6856537 -39.391403 18.586014 -53.60942c11.900497 -14.218018 28.040878 -22.20575 44.87056 -22.20575c16.829712 0 32.970245 7.987732 44.870575 22.20575c11.90036 14.218185 18.58603 33.50203 18.58603 53.60942c0 20.107391 -6.685669 39.391388 -18.58603 53.609406c-11.900482 14.218018 -28.040863 22.20575 -44.870575 22.20575c-16.829681 0 -32.970215 -7.987732 -44.87056 -22.20575c-11.90036 -14.21817 -18.586014 -33.502014 -18.586014 -53.609406z" fill-rule="evenodd"/><path stroke="#8e1b1b" stroke-width="2.0" stroke-linejoin="round" stroke-linecap="butt" stroke-dasharray="2.0,6.0" d="m231.92029 279.37225c0 -20.107391 6.6856537 -39.391403 18.586014 -53.60942c11.900497 -14.218018 28.040878 -22.20575 44.87056 -22.20575c16.829712 0 32.970245 7.987732 44.870575 22.20575c11.90036 14.218185 18.58603 33.50203 18.58603 53.60942c0 20.107391 -6.685669 39.391388 -18.58603 53.609406c-11.900482 14.218018 -28.040863 22.20575 -44.870575 22.20575c-16.829681 0 -32.970215 -7.987732 -44.87056 -22.20575c-11.90036 -14.21817 -18.586014 -33.502014 -18.586014 -53.609406z" fill-rule="evenodd"/><path fill="#000000" fill-opacity="0.0" d="m417.5377 279.37225c0 -20.107391 6.685669 -39.391403 18.58603 -53.60942c11.900482 -14.218018 28.040863 -22.20575 44.870575 -22.20575c16.829681 0 32.970184 7.987732 44.870575 22.20575c11.90033 14.218185 18.585999 33.50203 18.585999 53.60942c0 20.107391 -6.685669 39.391388 -18.585999 53.609406c-11.900513 14.218018 -28.040894 22.20575 -44.870575 22.20575c-16.829712 0 -32.970245 -7.987732 -44.870575 -22.20575c-11.90036 -14.21817 -18.58603 -33.502014 -18.58603 -53.609406z" fill-rule="evenodd"/><path stroke="#8e1b1b" stroke-width="2.0" stroke-linejoin="round" stroke-linecap="butt" stroke-dasharray="2.0,6.0" d="m417.5377 279.37225c0 -20.107391 6.685669 -39.391403 18.58603 -53.60942c11.900482 -14.218018 28.040863 -22.20575 44.870575 -22.20575c16.829681 0 32.970184 7.987732 44.870575 22.20575c11.90033 14.218185 18.585999 33.50203 18.585999 53.60942c0 20.107391 -6.685669 39.391388 -18.585999 53.609406c-11.900513 14.218018 -28.040894 22.20575 -44.870575 22.20575c-16.829712 0 -32.970245 -7.987732 -44.870575 -22.20575c-11.90036 -14.21817 -18.58603 -33.502014 -18.58603 -53.609406z" fill-rule="evenodd"/><path fill="#000000" fill-opacity="0.0" d="m603.1551 279.37225c0 -20.107391 6.685669 -39.391403 18.585999 -53.60942c11.900513 -14.218018 28.040894 -22.20575 44.870544 -22.20575c16.829712 0 32.970276 7.987732 44.870605 22.20575c11.90033 14.218185 18.585999 33.50203 18.585999 53.60942c0 20.107391 -6.685669 39.391388 -18.585999 53.609406c-11.900513 14.218018 -28.040894 22.20575 -44.870605 22.20575c-16.82965 0 -32.970215 -7.987732 -44.870544 -22.20575c-11.90033 -14.21817 -18.585999 -33.502014 -18.585999 -53.609406z" fill-rule="evenodd"/><path stroke="#8e1b1b" stroke-width="2.0" stroke-linejoin="round" stroke-linecap="butt" stroke-dasharray="2.0,6.0" d="m603.1551 279.37225c0 -20.107391 6.685669 -39.391403 18.585999 -53.60942c11.900513 -14.218018 28.040894 -22.20575 44.870544 -22.20575c16.829712 0 32.970276 7.987732 44.870605 22.20575c11.90033 14.218185 18.585999 33.50203 18.585999 53.60942c0 20.107391 -6.685669 39.391388 -18.585999 53.609406c-11.900513 14.218018 -28.040894 22.20575 -44.870605 22.20575c-16.82965 0 -32.970215 -7.987732 -44.870544 -22.20575c-11.90033 -14.21817 -18.585999 -33.502014 -18.585999 -53.609406z" fill-rule="evenodd"/><path fill="#000000" fill-opacity="0.0" d="m788.77264 279.37225c0 -20.107391 6.685669 -39.391403 18.585999 -53.60942c11.900513 -14.218018 28.040894 -22.20575 44.870605 -22.20575c16.829712 0 32.970215 7.987732 44.870544 22.20575c11.900391 14.218185 18.58606 33.50203 18.58606 53.60942c0 20.107391 -6.685669 39.391388 -18.58606 53.609406c-11.900452 14.218018 -28.040833 22.20575 -44.870544 22.20575c-16.829712 0 -32.970215 -7.987732 -44.870605 -22.20575c-11.90033 -14.21817 -18.585999 -33.502014 -18.585999 -53.609406z" fill-rule="evenodd"/><path stroke="#8e1b1b" stroke-width="2.0" stroke-linejoin="round" stroke-linecap="butt" stroke-dasharray="2.0,6.0" d="m788.77264 279.37225c0 -20.107391 6.685669 -39.391403 18.585999 -53.60942c11.900513 -14.218018 28.040894 -22.20575 44.870605 -22.20575c16.829712 0 32.970215 7.987732 44.870544 22.20575c11.900391 14.218185 18.58606 33.50203 18.58606 53.60942c0 20.107391 -6.685669 39.391388 -18.58606 53.609406c-11.900452 14.218018 -28.040833 22.20575 -44.870544 22.20575c-16.829712 0 -32.970215 -7.987732 -44.870605 -22.20575c-11.90033 -14.21817 -18.585999 -33.502014 -18.585999 -53.609406z" fill-rule="evenodd"/><path fill="#000000" fill-opacity="0.0" d="m16.868868 376.96698l168.31496 0l0 48.283478l-168.31496 0z" fill-rule="evenodd"/><path fill="#8e1b1b" d="m48.25889 410.7087l-3.6875 0l0 -14.46875l-3.609375 1.390625l0 -3.078125l6.90625 -2.828125l0.390625 0l0 18.984375zm5.749939 -9.3125l0.9375 -9.640625l9.1875 0l0 3.15625l-6.15625 0l-0.34375 4.0625q1.0625 -0.71875 2.203125 -0.71875q2.34375 0 3.609375 1.671875q1.265625 1.65625 1.265625 4.703125q0 2.84375 -1.515625 4.59375q-1.5 1.75 -4.03125 1.75q-1.5 0 -2.78125 -0.703125q-1.265625 -0.71875 -2.0 -1.984375q-0.734375 -1.265625 -0.75 -2.859375l3.640625 0q0.09375 1.1875 0.59375 1.84375q0.5 0.640625 1.265625 0.640625q0.921875 0 1.40625 -0.875q0.5 -0.890625 0.5 -2.625q0 -1.640625 -0.59375 -2.46875q-0.59375 -0.84375 -1.65625 -0.84375q-1.046875 0 -1.609375 0.71875l-0.234375 0.328125l-2.9375 -0.75zm17.499939 -8.234375l0 3.46875l1.890625 0l0 2.765625l-1.890625 0l0 6.984375q0 0.84375 0.21875 1.15625q0.234375 0.3125 0.890625 0.3125q0.53125 0 0.859375 -0.09375l-0.015625 2.859375q-0.9375 0.359375 -2.03125 0.359375q-3.5625 0 -3.609375 -4.09375l0 -7.484375l-1.625 0l0 -2.765625l1.625 0l0 -3.46875l3.6875 0zm7.499405 4.703125q1.1875 -1.5 2.9375 -1.5q1.921875 0 2.921875 1.359375q1.015625 1.34375 1.015625 4.03125l0 8.953125l-3.6875 0l0 -8.921875q0 -1.234375 -0.390625 -1.78125q-0.375 -0.5625 -1.234375 -0.5625q-1.0 0 -1.5625 0.9375l0 10.328125l-3.6875 0l0 -20.0l3.6875 0l0 7.15625zm29.18518 5.078125q0 3.8125 -1.796875 5.921875q-1.796875 2.109375 -5.0 2.109375q-3.1875 0 -5.015625 -2.09375q-1.828125 -2.09375 -1.84375 -5.84375l0 -3.25q0 -3.90625 1.796875 -6.09375q1.8125 -2.203125 5.03125 -2.203125q3.15625 0 4.984375 2.15625q1.828125 2.15625 1.84375 6.046875l0 3.25zm-3.828125 -3.1875q0 -2.5625 -0.734375 -3.8125q-0.734375 -1.25 -2.265625 -1.25q-1.515625 0 -2.25 1.21875q-0.734375 1.203125 -0.75 3.65625l0 3.375q0 2.484375 0.734375 3.671875q0.75 1.171875 2.296875 1.171875q1.484375 0 2.21875 -1.15625q0.734375 -1.15625 0.75 -3.578125l0 -3.296875zm11.493713 8.15625q1.59375 0 1.625 -2.078125l3.453125 0q-0.015625 2.296875 -1.421875 3.71875q-1.390625 1.421875 -3.578125 1.421875q-2.734375 0 -4.171875 -1.6875q-1.421875 -1.703125 -1.453125 -5.0l0 -1.109375q0 -3.328125 1.40625 -5.0625q1.421875 -1.75 4.1875 -1.75q2.328125 0 3.671875 1.4375q1.34375 1.4375 1.359375 4.078125l-3.453125 0q-0.015625 -1.1875 -0.40625 -1.8125q-0.375 -0.640625 -1.234375 -0.640625q-0.96875 0 -1.390625 0.6875q-0.40625 0.671875 -0.4375 2.640625l0 1.4375q0 1.71875 0.171875 2.40625q0.171875 0.671875 0.5625 1.0q0.390625 0.3125 1.109375 0.3125zm11.448334 -14.75l0 3.46875l1.8906326 0l0 2.765625l-1.8906326 0l0 6.984375q0 0.84375 0.21875 1.15625q0.234375 0.3125 0.8906326 0.3125q0.53125 0 0.859375 -0.09375l-0.015625 2.859375q-0.9375 0.359375 -2.0312576 0.359375q-3.5625 0 -3.609375 -4.09375l0 -7.484375l-1.625 0l0 -2.765625l1.625 0l0 -3.46875l3.6875 0zm5.4369125 4.40625l-1.6875 -1.015625q0.921875 -1.84375 0.953125 -3.578125l0 -2.265625l2.890625 0l0 2.0625q0 1.1875 -0.609375 2.5625q-0.609375 1.375 -1.546875 2.234375zm12.768478 13.140625l-3.6874847 0l0 -14.46875l-3.609375 1.390625l0 -3.078125l6.9062347 -2.828125l0.390625 0l0 18.984375zm12.515564 -7.328125q-1.171875 1.203125 -2.5625 1.203125q-2.15625 0 -3.40625 -1.734375q-1.234375 -1.75 -1.234375 -4.65625q0 -1.859375 0.703125 -3.421875q0.703125 -1.5625 1.953125 -2.421875q1.265625 -0.859375 2.8125 -0.859375q1.59375 0 2.84375 0.953125q1.25 0.953125 1.9375 2.734375q0.703125 1.78125 0.703125 4.03125l0 1.34375q0 4.84375 -2.140625 7.578125q-2.125 2.71875 -6.03125 2.765625l-0.375 0l0 -3.171875l0.25 0q2.15625 -0.015625 3.234375 -1.109375q1.09375 -1.109375 1.3125 -3.234375zm-1.625 -1.6875q1.078125 0 1.6875 -1.46875l0 -1.6875q0 -1.859375 -0.515625 -2.921875q-0.5 -1.0625 -1.3125 -1.0625q-0.796875 0 -1.28125 1.046875q-0.484375 1.046875 -0.484375 2.5625q0 1.640625 0.5 2.59375q0.515625 0.9375 1.40625 0.9375z" fill-rule="nonzero"/><path fill="#000000" fill-opacity="0.0" d="m216.74446 147.1131l168.31496 0l0 48.283463l-168.31496 0z" fill-rule="evenodd"/><path fill="#8e1b1b" d="m251.19699 180.85483l-11.171875 0l0 -2.609375l5.125 -6.515625q0.984375 -1.359375 1.4375 -2.375q0.46875 -1.015625 0.46875 -1.953125q0 -1.265625 -0.4375 -1.984375q-0.4375 -0.71875 -1.25 -0.71875q-0.90625 0 -1.4375 0.84375q-0.515625 0.828125 -0.515625 2.328125l-3.703125 0q0 -1.734375 0.71875 -3.171875q0.734375 -1.453125 2.03125 -2.25q1.3125 -0.8125 2.96875 -0.8125q2.53125 0 3.921875 1.40625q1.40625 1.40625 1.40625 3.984375q0 1.59375 -0.78125 3.25q-0.765625 1.640625 -2.796875 4.046875l-2.421875 3.46875l6.4375 0l0 3.0625zm13.328064 -7.828125q0 3.921875 -1.4375 6.015625q-1.421875 2.078125 -4.0625 2.078125q-2.609375 0 -4.046875 -2.015625q-1.421875 -2.03125 -1.46875 -5.8125l0 -3.578125q0 -3.921875 1.421875 -6.0q1.421875 -2.078125 4.078125 -2.078125q2.65625 0 4.0625 2.0625q1.421875 2.0625 1.453125 5.875l0 3.453125zm-3.703125 -3.84375q0 -2.234375 -0.4375 -3.359375q-0.4375 -1.125 -1.375 -1.125q-1.765625 0 -1.828125 4.109375l0 4.71875q0 2.296875 0.453125 3.421875q0.453125 1.109375 1.390625 1.109375q0.90625 0 1.34375 -1.046875q0.4375 -1.046875 0.453125 -3.203125l0 -4.625zm10.562439 -5.875l0 3.46875l1.890625 0l0 2.765625l-1.890625 0l0 6.984375q0 0.84375 0.21875 1.15625q0.234375 0.3125 0.890625 0.3125q0.53125 0 0.859375 -0.09375l-0.015625 2.859375q-0.9375 0.359375 -2.03125 0.359375q-3.5625 0 -3.609375 -4.09375l0 -7.484375l-1.625 0l0 -2.765625l1.625 0l0 -3.46875l3.6875 0zm7.4993896 4.703125q1.1875 -1.5 2.9375 -1.5q1.921875 0 2.921875 1.359375q1.015625 1.34375 1.015625 4.03125l0 8.953125l-3.6875 0l0 -8.921875q0 -1.234375 -0.390625 -1.78125q-0.375 -0.5625 -1.234375 -0.5625q-1.0 0 -1.5625 0.9375l0 10.328125l-3.6875 0l0 -20.0l3.6875 0l0 7.15625zm29.18518 5.078125q0 3.8125 -1.796875 5.921875q-1.796875 2.109375 -5.0 2.109375q-3.1875 0 -5.015625 -2.09375q-1.828125 -2.09375 -1.84375 -5.84375l0 -3.25q0 -3.90625 1.796875 -6.09375q1.8125 -2.203125 5.03125 -2.203125q3.15625 0 4.984375 2.15625q1.828125 2.15625 1.84375 6.046875l0 3.25zm-3.828125 -3.1875q0 -2.5625 -0.734375 -3.8125q-0.734375 -1.25 -2.265625 -1.25q-1.515625 0 -2.25 1.21875q-0.734375 1.203125 -0.75 3.65625l0 3.375q0 2.484375 0.734375 3.671875q0.75 1.171875 2.296875 1.171875q1.484375 0 2.21875 -1.15625q0.734375 -1.15625 0.75 -3.578125l0 -3.296875zm11.493713 8.15625q1.59375 0 1.625 -2.078125l3.453125 0q-0.015625 2.296875 -1.421875 3.71875q-1.390625 1.421875 -3.578125 1.421875q-2.734375 0 -4.171875 -1.6875q-1.421875 -1.703125 -1.453125 -5.0l0 -1.109375q0 -3.328125 1.40625 -5.0625q1.421875 -1.75 4.1875 -1.75q2.328125 0 3.671875 1.4375q1.34375 1.4375 1.359375 4.078125l-3.453125 0q-0.015625 -1.1875 -0.40625 -1.8125q-0.375 -0.640625 -1.234375 -0.640625q-0.96875 0 -1.390625 0.6875q-0.40625 0.671875 -0.4375 2.640625l0 1.4375q0 1.71875 0.171875 2.40625q0.171875 0.671875 0.5625 1.0q0.390625 0.3125 1.109375 0.3125zm11.448334 -14.75l0 3.46875l1.890625 0l0 2.765625l-1.890625 0l0 6.984375q0 0.84375 0.21875 1.15625q0.234375 0.3125 0.890625 0.3125q0.53125 0 0.859375 -0.09375l-0.015625 2.859375q-0.9375 0.359375 -2.03125 0.359375q-3.5625 0 -3.609375 -4.09375l0 -7.484375l-1.625 0l0 -2.765625l1.625 0l0 -3.46875l3.6875 0zm5.43692 4.40625l-1.6875 -1.015625q0.921875 -1.84375 0.953125 -3.578125l0 -2.265625l2.890625 0l0 2.0625q0 1.1875 -0.609375 2.5625q-0.609375 1.375 -1.546875 2.234375zm12.768494 13.140625l-3.6875 0l0 -14.46875l-3.609375 1.390625l0 -3.078125l6.90625 -2.828125l0.390625 0l0 18.984375zm12.515564 -7.328125q-1.171875 1.203125 -2.5625 1.203125q-2.15625 0 -3.40625 -1.734375q-1.234375 -1.75 -1.234375 -4.65625q0 -1.859375 0.703125 -3.421875q0.703125 -1.5625 1.953125 -2.421875q1.265625 -0.859375 2.8125 -0.859375q1.59375 0 2.84375 0.953125q1.25 0.953125 1.9375 2.734375q0.703125 1.78125 0.703125 4.03125l0 1.34375q0 4.84375 -2.140625 7.578125q-2.125 2.71875 -6.03125 2.765625l-0.375 0l0 -3.171875l0.25 0q2.15625 -0.015625 3.234375 -1.109375q1.09375 -1.109375 1.3125 -3.234375zm-1.625 -1.6875q1.078125 0 1.6875 -1.46875l0 -1.6875q0 -1.859375 -0.515625 -2.921875q-0.5 -1.0625 -1.3125 -1.0625q-0.796875 0 -1.28125 1.046875q-0.484375 1.046875 -0.484375 2.5625q0 1.640625 0.5 2.59375q0.515625 0.9375 1.40625 0.9375z" fill-rule="nonzero"/><path fill="#000000" fill-opacity="0.0" d="m404.11404 376.96698l185.35434 0l0 48.283478l-185.35434 0z" fill-rule="evenodd"/><path fill="#8e1b1b" d="m442.48148 410.7087l-3.6875 0l0 -14.46875l-3.609375 1.390625l0 -3.078125l6.90625 -2.828125l0.390625 0l0 18.984375zm16.390564 -7.828125q0 3.921875 -1.4375 6.015625q-1.421875 2.078125 -4.0625 2.078125q-2.609375 0 -4.046875 -2.015625q-1.421875 -2.03125 -1.46875 -5.8125l0 -3.578125q0 -3.921875 1.421875 -6.0q1.421875 -2.078125 4.078125 -2.078125q2.65625 0 4.0625 2.0625q1.421875 2.0625 1.453125 5.875l0 3.453125zm-3.703125 -3.84375q0 -2.234375 -0.4375 -3.359375q-0.4375 -1.125 -1.375 -1.125q-1.765625 0 -1.828125 4.109375l0 4.71875q0 2.296875 0.453125 3.421875q0.453125 1.109375 1.390625 1.109375q0.90625 0 1.34375 -1.046875q0.4375 -1.046875 0.453125 -3.203125l0 -4.625zm10.562439 -5.875l0 3.46875l1.890625 0l0 2.765625l-1.890625 0l0 6.984375q0 0.84375 0.21875 1.15625q0.234375 0.3125 0.890625 0.3125q0.53125 0 0.859375 -0.09375l-0.015625 2.859375q-0.9375 0.359375 -2.03125 0.359375q-3.5625 0 -3.609375 -4.09375l0 -7.484375l-1.625 0l0 -2.765625l1.625 0l0 -3.46875l3.6875 0zm7.4993896 4.703125q1.1875 -1.5 2.9375 -1.5q1.921875 0 2.921875 1.359375q1.015625 1.34375 1.015625 4.03125l0 8.953125l-3.6875 0l0 -8.921875q0 -1.234375 -0.390625 -1.78125q-0.375 -0.5625 -1.234375 -0.5625q-1.0 0 -1.5625 0.9375l0 10.328125l-3.6875 0l0 -20.0l3.6875 0l0 7.15625zm15.841431 12.84375l0 -18.953125l5.015625 0q3.328125 0 5.296875 2.109375q1.96875 2.109375 2.0 5.78125l0 3.078125q0 3.734375 -1.96875 5.859375q-1.96875 2.125 -5.421875 2.125l-4.921875 0zm3.828125 -15.765625l0 12.59375l1.15625 0q1.90625 0 2.6875 -1.0q0.78125 -1.015625 0.828125 -3.5l0 -3.28125q0 -2.65625 -0.75 -3.703125q-0.734375 -1.046875 -2.53125 -1.109375l-1.390625 0zm16.746735 16.03125q-2.84375 0 -4.4375 -1.6875q-1.578125 -1.703125 -1.578125 -4.859375l0 -1.109375q0 -3.328125 1.453125 -5.140625q1.46875 -1.8125 4.1875 -1.8125q2.65625 0 3.984375 1.703125q1.34375 1.6875 1.375 5.03125l0 1.796875l-7.328125 0q0.078125 1.5625 0.6875 2.296875q0.609375 0.71875 1.890625 0.71875q1.84375 0 3.078125 -1.265625l1.453125 2.234375q-0.6875 0.9375 -1.984375 1.515625q-1.28125 0.578125 -2.78125 0.578125zm-2.3125 -8.640625l3.671875 0l0 -0.34375q-0.015625 -1.265625 -0.40625 -1.90625q-0.390625 -0.65625 -1.359375 -0.65625q-0.96875 0 -1.40625 0.6875q-0.421875 0.6875 -0.5 2.21875zm14.474182 5.578125q1.59375 0 1.625 -2.078125l3.453125 0q-0.015625 2.296875 -1.421875 3.71875q-1.390625 1.421875 -3.578125 1.421875q-2.734375 0 -4.171875 -1.6875q-1.421875 -1.703125 -1.453125 -5.0l0 -1.109375q0 -3.328125 1.40625 -5.0625q1.421875 -1.75 4.1875 -1.75q2.328125 0 3.671875 1.4375q1.34375 1.4375 1.359375 4.078125l-3.453125 0q-0.015625 -1.1875 -0.40625 -1.8125q-0.375 -0.640625 -1.234375 -0.640625q-0.96875 0 -1.390625 0.6875q-0.40625 0.671875 -0.4375 2.640625l0 1.4375q0 1.71875 0.171875 2.40625q0.171875 0.671875 0.5625 1.0q0.390625 0.3125 1.109375 0.3125zm8.242615 -10.34375l-1.6875 -1.015625q0.921875 -1.84375 0.953125 -3.578125l0 -2.265625l2.890625 0l0 2.0625q0 1.1875 -0.609375 2.5625q-0.609375 1.375 -1.546875 2.234375zm12.768494 13.140625l-3.6875 0l0 -14.46875l-3.609375 1.390625l0 -3.078125l6.90625 -2.828125l0.390625 0l0 18.984375zm12.515564 -7.328125q-1.171875 1.203125 -2.5625 1.203125q-2.15625 0 -3.40625 -1.734375q-1.234375 -1.75 -1.234375 -4.65625q0 -1.859375 0.703125 -3.421875q0.703125 -1.5625 1.953125 -2.421875q1.265625 -0.859375 2.8125 -0.859375q1.59375 0 2.84375 0.953125q1.25 0.953125 1.9375 2.734375q0.703125 1.78125 0.703125 4.03125l0 1.34375q0 4.84375 -2.140625 7.578125q-2.125 2.71875 -6.03125 2.765625l-0.375 0l0 -3.171875l0.25 0q2.15625 -0.015625 3.234375 -1.109375q1.09375 -1.109375 1.3125 -3.234375zm-1.625 -1.6875q1.078125 0 1.6875 -1.46875l0 -1.6875q0 -1.859375 -0.515625 -2.921875q-0.5 -1.0625 -1.3125 -1.0625q-0.796875 0 -1.28125 1.046875q-0.484375 1.046875 -0.484375 2.5625q0 1.640625 0.5 2.59375q0.515625 0.9375 1.40625 0.9375z" fill-rule="nonzero"/><path fill="#000000" fill-opacity="0.0" d="m572.78326 147.1131l185.35437 0l0 48.283463l-185.35437 0z" fill-rule="evenodd"/><path fill="#8e1b1b" d="m614.2132 180.85483l-11.171875 0l0 -2.609375l5.125 -6.515625q0.984375 -1.359375 1.4375 -2.375q0.46875 -1.015625 0.46875 -1.953125q0 -1.265625 -0.4375 -1.984375q-0.4375 -0.71875 -1.25 -0.71875q-0.90625 0 -1.4375 0.84375q-0.515625 0.828125 -0.515625 2.328125l-3.703125 0q0 -1.734375 0.71875 -3.171875q0.734375 -1.453125 2.03125 -2.25q1.3125 -0.8125 2.96875 -0.8125q2.53125 0 3.921875 1.40625q1.40625 1.40625 1.40625 3.984375q0 1.59375 -0.78125 3.25q-0.765625 1.640625 -2.796875 4.046875l-2.421875 3.46875l6.4375 0l0 3.0625zm2.687439 -9.3125l0.9375 -9.640625l9.1875 0l0 3.15625l-6.15625 0l-0.34375 4.0625q1.0625 -0.71875 2.203125 -0.71875q2.34375 0 3.609375 1.671875q1.265625 1.65625 1.265625 4.703125q0 2.84375 -1.515625 4.59375q-1.5 1.75 -4.03125 1.75q-1.5 0 -2.78125 -0.703125q-1.265625 -0.71875 -2.0 -1.984375q-0.734375 -1.265625 -0.75 -2.859375l3.640625 0q0.09375 1.1875 0.59375 1.84375q0.5 0.640625 1.265625 0.640625q0.921875 0 1.40625 -0.875q0.5 -0.890625 0.5 -2.625q0 -1.640625 -0.59375 -2.46875q-0.59375 -0.84375 -1.65625 -0.84375q-1.046875 0 -1.609375 0.71875l-0.234375 0.328125l-2.9375 -0.75zm17.499939 -8.234375l0 3.46875l1.890625 0l0 2.765625l-1.890625 0l0 6.984375q0 0.84375 0.21875 1.15625q0.234375 0.3125 0.890625 0.3125q0.53125 0 0.859375 -0.09375l-0.015625 2.859375q-0.9375 0.359375 -2.03125 0.359375q-3.5625 0 -3.609375 -4.09375l0 -7.484375l-1.625 0l0 -2.765625l1.625 0l0 -3.46875l3.6875 0zm7.4994507 4.703125q1.1875 -1.5 2.9375 -1.5q1.921875 0 2.921875 1.359375q1.015625 1.34375 1.015625 4.03125l0 8.953125l-3.6875 0l0 -8.921875q0 -1.234375 -0.390625 -1.78125q-0.375 -0.5625 -1.234375 -0.5625q-1.0 0 -1.5625 0.9375l0 10.328125l-3.6875 0l0 -20.0l3.6875 0l0 7.15625zm15.841431 12.84375l0 -18.953125l5.015625 0q3.328125 0 5.296875 2.109375q1.96875 2.109375 2.0 5.78125l0 3.078125q0 3.734375 -1.96875 5.859375q-1.96875 2.125 -5.421875 2.125l-4.921875 0zm3.828125 -15.765625l0 12.59375l1.15625 0q1.90625 0 2.6875 -1.0q0.78125 -1.015625 0.828125 -3.5l0 -3.28125q0 -2.65625 -0.75 -3.703125q-0.734375 -1.046875 -2.53125 -1.109375l-1.390625 0zm16.746704 16.03125q-2.84375 0 -4.4375 -1.6875q-1.578125 -1.703125 -1.578125 -4.859375l0 -1.109375q0 -3.328125 1.453125 -5.140625q1.46875 -1.8125 4.1875 -1.8125q2.65625 0 3.984375 1.703125q1.34375 1.6875 1.375 5.03125l0 1.796875l-7.328125 0q0.078125 1.5625 0.6875 2.296875q0.609375 0.71875 1.890625 0.71875q1.84375 0 3.078125 -1.265625l1.453125 2.234375q-0.6875 0.9375 -1.984375 1.515625q-1.28125 0.578125 -2.78125 0.578125zm-2.3125 -8.640625l3.671875 0l0 -0.34375q-0.015625 -1.265625 -0.40625 -1.90625q-0.390625 -0.65625 -1.359375 -0.65625q-0.96875 0 -1.40625 0.6875q-0.421875 0.6875 -0.5 2.21875zm14.474182 5.578125q1.59375 0 1.625 -2.078125l3.453125 0q-0.015625 2.296875 -1.421875 3.71875q-1.390625 1.421875 -3.578125 1.421875q-2.734375 0 -4.171875 -1.6875q-1.421875 -1.703125 -1.453125 -5.0l0 -1.109375q0 -3.328125 1.40625 -5.0625q1.421875 -1.75 4.1875 -1.75q2.328125 0 3.671875 1.4375q1.34375 1.4375 1.359375 4.078125l-3.453125 0q-0.015625 -1.1875 -0.40625 -1.8125q-0.375 -0.640625 -1.234375 -0.640625q-0.96875 0 -1.390625 0.6875q-0.40625 0.671875 -0.4375 2.640625l0 1.4375q0 1.71875 0.171875 2.40625q0.171875 0.671875 0.5625 1.0q0.390625 0.3125 1.109375 0.3125zm8.242615 -10.34375l-1.6875 -1.015625q0.921875 -1.84375 0.953125 -3.578125l0 -2.265625l2.890625 0l0 2.0625q0 1.1875 -0.609375 2.5625q-0.609375 1.375 -1.546875 2.234375zm12.768494 13.140625l-3.6875 0l0 -14.46875l-3.609375 1.390625l0 -3.078125l6.90625 -2.828125l0.390625 0l0 18.984375zm12.515564 -7.328125q-1.171875 1.203125 -2.5625 1.203125q-2.15625 0 -3.40625 -1.734375q-1.234375 -1.75 -1.234375 -4.65625q0 -1.859375 0.703125 -3.421875q0.703125 -1.5625 1.953125 -2.421875q1.265625 -0.859375 2.8125 -0.859375q1.59375 0 2.84375 0.953125q1.25 0.953125 1.9375 2.734375q0.703125 1.78125 0.703125 4.03125l0 1.34375q0 4.84375 -2.140625 7.578125q-2.125 2.71875 -6.03125 2.765625l-0.375 0l0 -3.171875l0.25 0q2.15625 -0.015625 3.234375 -1.109375q1.09375 -1.109375 1.3125 -3.234375zm-1.625 -1.6875q1.078125 0 1.6875 -1.46875l0 -1.6875q0 -1.859375 -0.515625 -2.921875q-0.5 -1.0625 -1.3125 -1.0625q-0.796875 0 -1.28125 1.046875q-0.484375 1.046875 -0.484375 2.5625q0 1.640625 0.5 2.59375q0.515625 0.9375 1.40625 0.9375z" fill-rule="nonzero"/><path fill="#000000" fill-opacity="0.0" d="m780.18604 376.96698l168.31494 0l0 48.283478l-168.31494 0z" fill-rule="evenodd"/><path fill="#8e1b1b" d="m812.15906 410.7087l-11.171875 0l0 -2.609375l5.125 -6.515625q0.984375 -1.359375 1.4375 -2.375q0.46875 -1.015625 0.46875 -1.953125q0 -1.265625 -0.4375 -1.984375q-0.4375 -0.71875 -1.25 -0.71875q-0.90625 0 -1.4375 0.84375q-0.515625 0.828125 -0.515625 2.328125l-3.703125 0q0 -1.734375 0.71875 -3.171875q0.734375 -1.453125 2.03125 -2.25q1.3125 -0.8125 2.96875 -0.8125q2.53125 0 3.921875 1.40625q1.40625 1.40625 1.40625 3.984375q0 1.59375 -0.78125 3.25q-0.765625 1.640625 -2.796875 4.046875l-2.421875 3.46875l6.4375 0l0 3.0625zm13.328064 -7.828125q0 3.921875 -1.4375 6.015625q-1.421875 2.078125 -4.0625 2.078125q-2.609375 0 -4.046875 -2.015625q-1.421875 -2.03125 -1.46875 -5.8125l0 -3.578125q0 -3.921875 1.421875 -6.0q1.421875 -2.078125 4.078125 -2.078125q2.65625 0 4.0625 2.0625q1.421875 2.0625 1.453125 5.875l0 3.453125zm-3.703125 -3.84375q0 -2.234375 -0.4375 -3.359375q-0.4375 -1.125 -1.375 -1.125q-1.765625 0 -1.828125 4.109375l0 4.71875q0 2.296875 0.453125 3.421875q0.453125 1.109375 1.390625 1.109375q0.90625 0 1.34375 -1.046875q0.4375 -1.046875 0.453125 -3.203125l0 -4.625zm10.562439 -5.875l0 3.46875l1.890625 0l0 2.765625l-1.890625 0l0 6.984375q0 0.84375 0.21875 1.15625q0.234375 0.3125 0.890625 0.3125q0.53125 0 0.859375 -0.09375l-0.015625 2.859375q-0.9375 0.359375 -2.03125 0.359375q-3.5625 0 -3.609375 -4.09375l0 -7.484375l-1.625 0l0 -2.765625l1.625 0l0 -3.46875l3.6875 0zm7.4993896 4.703125q1.1875 -1.5 2.9375 -1.5q1.921875 0 2.921875 1.359375q1.015625 1.34375 1.015625 4.03125l0 8.953125l-3.6875 0l0 -8.921875q0 -1.234375 -0.390625 -1.78125q-0.375 -0.5625 -1.234375 -0.5625q-1.0 0 -1.5625 0.9375l0 10.328125l-3.6875 0l0 -20.0l3.6875 0l0 7.15625zm20.84143 -6.109375l3.578125 13.703125l3.578125 -13.703125l5.0 0l0 18.953125l-3.84375 0l0 -5.125l0.34375 -7.90625l-3.78125 13.03125l-2.609375 0l-3.78125 -13.03125l0.34375 7.90625l0 5.125l-3.828125 0l0 -18.953125l5.0 0zm21.729065 18.953125q-0.15625 -0.328125 -0.3125 -1.09375q-0.984375 1.359375 -2.6875 1.359375q-1.765625 0 -2.9375 -1.171875q-1.15625 -1.171875 -1.15625 -3.03125q0 -2.21875 1.40625 -3.421875q1.421875 -1.21875 4.078125 -1.25l1.109375 0l0 -1.125q0 -0.953125 -0.328125 -1.34375q-0.3125 -0.390625 -0.9375 -0.390625q-1.390625 0 -1.390625 1.609375l-3.671875 0q0 -1.953125 1.453125 -3.21875q1.46875 -1.265625 3.703125 -1.265625q2.328125 0 3.59375 1.203125q1.265625 1.203125 1.265625 3.4375l0 6.625q0.03125 1.828125 0.515625 2.859375l0 0.21875l-3.703125 0zm-2.171875 -2.625q0.609375 0 1.03125 -0.25q0.4375 -0.25 0.640625 -0.59375l0 -2.921875l-0.875 0q-0.9375 0 -1.484375 0.609375q-0.53125 0.59375 -0.53125 1.59375q0 1.5625 1.21875 1.5625zm14.98468 -7.90625l-1.234375 -0.109375q-1.5 0 -2.03125 1.328125l0 9.3125l-3.703125 0l0 -14.078125l3.46875 0l0.109375 1.515625q0.875 -1.78125 2.40625 -1.78125q0.625 0 1.015625 0.171875l-0.03125 3.640625zm3.3116455 -2.609375l-1.6875 -1.015625q0.921875 -1.84375 0.953125 -3.578125l0 -2.265625l2.890625 0l0 2.0625q0 1.1875 -0.609375 2.5625q-0.609375 1.375 -1.546875 2.234375zm15.831055 13.140625l-11.171936 0l0 -2.609375l5.125061 -6.515625q0.984375 -1.359375 1.4375 -2.375q0.46875 -1.015625 0.46875 -1.953125q0 -1.265625 -0.4375 -1.984375q-0.4375 -0.71875 -1.25 -0.71875q-0.90631104 0 -1.437561 0.84375q-0.515625 0.828125 -0.515625 2.328125l-3.703125 0q0 -1.734375 0.71875 -3.171875q0.734375 -1.453125 2.03125 -2.25q1.3125 -0.8125 2.968811 -0.8125q2.53125 0 3.921875 1.40625q1.40625 1.40625 1.40625 3.984375q0 1.59375 -0.78125 3.25q-0.765625 1.640625 -2.796875 4.046875l-2.421936 3.46875l6.437561 0l0 3.0625zm13.328064 -7.828125q0 3.921875 -1.4375 6.015625q-1.421875 2.078125 -4.0625 2.078125q-2.609375 0 -4.046875 -2.015625q-1.421875 -2.03125 -1.46875 -5.8125l0 -3.578125q0 -3.921875 1.421875 -6.0q1.421875 -2.078125 4.078125 -2.078125q2.65625 0 4.0625 2.0625q1.421875 2.0625 1.453125 5.875l0 3.453125zm-3.703125 -3.84375q0 -2.234375 -0.4375 -3.359375q-0.4375 -1.125 -1.375 -1.125q-1.765625 0 -1.828125 4.109375l0 4.71875q0 2.296875 0.453125 3.421875q0.453125 1.109375 1.390625 1.109375q0.90625 0 1.34375 -1.046875q0.4375 -1.046875 0.453125 -3.203125l0 -4.625z" fill-rule="nonzero"/><path fill="#000000" fill-opacity="0.0" d="m44.194504 37.293972l153.70079 0l0 50.26771l-153.70079 0z" fill-rule="evenodd"/><path fill="#000000" d="m64.002625 49.479595l-4.171875 0l0 3.515625l4.9375 0l0 2.21875l-7.625 0l0 -13.265625l7.59375 0l0 2.234375l-4.90625 0l0 3.140625l4.171875 0l0 2.15625zm6.6237946 2.09375l2.21875 -9.625l3.0 0l-3.828125 13.265625l-2.796875 0l-3.796875 -13.265625l2.96875 0l2.234375 9.625zm13.316895 -2.09375l-4.171875 0l0 3.515625l4.9375 0l0 2.21875l-7.625 0l0 -13.265625l7.59375 0l0 2.234375l-4.90625 0l0 3.140625l4.171875 0l0 2.15625zm11.57692 5.734375l-2.6875 0l-3.90625 -8.703125l0 8.703125l-2.6875 0l0 -13.265625l2.6875 0l3.921875 8.703125l0 -8.703125l2.671875 0l0 13.265625zm10.471481 -11.03125l-3.28125 0l0 11.03125l-2.6875 0l0 -11.03125l-3.21875 0l0 -2.234375l9.1875 0l0 2.234375zm9.304443 6.1875l-1.328125 0l0 4.84375l-2.671875 0l0 -13.265625l4.265625 0q2.015625 0 3.109375 1.046875q1.109375 1.046875 1.109375 2.96875q0 2.640625 -1.921875 3.6875l2.3125 5.4375l0 0.125l-2.875 0l-2.0 -4.84375zm-1.328125 -2.234375l1.53125 0q0.796875 0 1.1875 -0.53125q0.40625 -0.53125 0.40625 -1.421875q0 -2.0 -1.5625 -2.0l-1.5625 0l0 3.953125zm16.98642 1.640625q0 2.671875 -1.265625 4.15625q-1.265625 1.46875 -3.5 1.46875q-2.234375 0 -3.515625 -1.453125q-1.265625 -1.46875 -1.28125 -4.109375l0 -2.265625q0 -2.734375 1.265625 -4.265625q1.265625 -1.546875 3.515625 -1.546875q2.203125 0 3.484375 1.515625q1.28125 1.5 1.296875 4.234375l0 2.265625zm-2.6875 -2.21875q0 -1.796875 -0.515625 -2.671875q-0.5 -0.875 -1.578125 -0.875q-1.0625 0 -1.578125 0.84375q-0.515625 0.84375 -0.53125 2.5625l0 2.359375q0 1.734375 0.515625 2.5625q0.53125 0.828125 1.609375 0.828125q1.046875 0 1.546875 -0.796875q0.515625 -0.8125 0.53125 -2.515625l0 -2.296875zm7.2905884 5.4375l4.6875 0l0 2.21875l-7.375 0l0 -13.265625l2.6875 0l0 11.046875zm8.927307 0l4.6875 0l0 2.21875l-7.375 0l0 -13.265625l2.6875 0l0 11.046875zm19.88324 -3.21875q0 2.671875 -1.265625 4.15625q-1.265625 1.46875 -3.5 1.46875q-2.234375 0 -3.515625 -1.453125q-1.265625 -1.46875 -1.28125 -4.109375l0 -2.265625q0 -2.734375 1.265625 -4.265625q1.265625 -1.546875 3.515625 -1.546875q2.203125 0 3.484375 1.515625q1.28125 1.5 1.296875 4.234375l0 2.265625zm-2.6875 -2.21875q0 -1.796875 -0.515625 -2.671875q-0.5 -0.875 -1.578125 -0.875q-1.0625 0 -1.578125 0.84375q-0.515625 0.84375 -0.53125 2.5625l0 2.359375q0 1.734375 0.515625 2.5625q0.53125 0.828125 1.609375 0.828125q1.046875 0 1.546875 -0.796875q0.515625 -0.8125 0.53125 -2.515625l0 -2.296875zm13.228088 -5.609375l0 9.1875q-0.015625 2.0625 -1.140625 3.171875q-1.109375 1.09375 -3.203125 1.09375q-2.140625 0 -3.265625 -1.109375q-1.125 -1.125 -1.125 -3.21875l0 -9.125l2.703125 0l0 9.125q0 1.140625 0.359375 1.625q0.359375 0.46875 1.3125 0.46875q0.96875 0 1.3125 -0.46875q0.359375 -0.484375 0.375 -1.578125l0 -9.171875l2.671875 0zm10.626862 2.234375l-3.28125 0l0 11.03125l-2.6875 0l0 -11.03125l-3.21875 0l0 -2.234375l9.1875 0l0 2.234375z" fill-rule="nonzero"/><path fill="#000000" fill-opacity="0.0" d="m226.31485 440.253l168.31497 0l0 26.614166l-168.31497 0z" fill-rule="evenodd"/><path fill="#000000" d="m253.56973 453.32922l-1.328125 0l0 4.84375l-2.671875 0l0 -13.265625l4.265625 0q2.015625 0 3.109375 1.046875q1.109375 1.046875 1.109375 2.96875q0 2.640625 -1.921875 3.6875l2.3125 5.4375l0 0.125l-2.875 0l-2.0 -4.84375zm-1.328125 -2.234375l1.53125 0q0.796875 0 1.1875 -0.53125q0.40625 -0.53125 0.40625 -1.421875q0 -2.0 -1.5625 -2.0l-1.5625 0l0 3.953125zm14.502045 1.34375l-4.171875 0l0 3.515625l4.9375 0l0 2.21875l-7.625 0l0 -13.265625l7.59375 0l0 2.234375l-4.90625 0l0 3.140625l4.171875 0l0 2.15625zm11.31131 4.234375q-0.765625 0.828125 -1.890625 1.265625q-1.125 0.421875 -2.46875 0.421875q-2.28125 0 -3.546875 -1.421875q-1.265625 -1.421875 -1.3125 -4.125l0 -2.390625q0 -2.734375 1.203125 -4.21875q1.203125 -1.484375 3.5 -1.484375q2.15625 0 3.25 1.078125q1.09375 1.0625 1.265625 3.34375l-2.59375 0q-0.109375 -1.265625 -0.53125 -1.71875q-0.421875 -0.46875 -1.3125 -0.46875q-1.078125 0 -1.578125 0.796875q-0.484375 0.78125 -0.515625 2.515625l0 2.40625q0 1.8125 0.546875 2.640625q0.546875 0.8125 1.78125 0.8125q0.796875 0 1.28125 -0.3125l0.234375 -0.15625l0 -2.4375l-1.875 0l0 -2.03125l4.5625 0l0 5.484375zm4.6944275 1.5l-2.671875 0l0 -13.265625l2.671875 0l0 13.265625zm7.8591614 -3.484375q0 -0.8125 -0.421875 -1.21875q-0.40625 -0.421875 -1.5 -0.859375q-2.0 -0.765625 -2.875 -1.78125q-0.875 -1.015625 -0.875 -2.390625q0 -1.6875 1.1875 -2.703125q1.1875 -1.015625 3.015625 -1.015625q1.234375 0 2.1875 0.515625q0.953125 0.515625 1.46875 1.453125q0.515625 0.9375 0.515625 2.140625l-2.671875 0q0 -0.9375 -0.40625 -1.421875q-0.390625 -0.484375 -1.125 -0.484375q-0.703125 0 -1.09375 0.421875q-0.390625 0.40625 -0.390625 1.109375q0 0.546875 0.4375 0.984375q0.4375 0.4375 1.546875 0.921875q1.9375 0.703125 2.8125 1.71875q0.875 1.015625 0.875 2.59375q0 1.734375 -1.109375 2.71875q-1.09375 0.96875 -2.984375 0.96875q-1.28125 0 -2.34375 -0.53125q-1.046875 -0.53125 -1.65625 -1.515625q-0.59375 -0.984375 -0.59375 -2.328125l2.6875 0q0 1.15625 0.4375 1.671875q0.453125 0.515625 1.46875 0.515625q1.40625 0 1.40625 -1.484375zm13.059479 -7.546875l-3.28125 0l0 11.03125l-2.6875 0l0 -11.03125l-3.21875 0l0 -2.234375l9.1875 0l0 2.234375zm5.5516357 6.1875l-1.328125 0l0 4.84375l-2.671875 0l0 -13.265625l4.265625 0q2.015625 0 3.109375 1.046875q1.109375 1.046875 1.109375 2.96875q0 2.640625 -1.921875 3.6875l2.3125 5.4375l0 0.125l-2.875 0l-2.0 -4.84375zm-1.328125 -2.234375l1.53125 0q0.796875 0 1.1875 -0.53125q0.40625 -0.53125 0.40625 -1.421875q0 -2.0 -1.5625 -2.0l-1.5625 0l0 3.953125zm13.970795 4.359375l-3.640625 0l-0.71875 2.71875l-2.828125 0l4.140625 -13.265625l2.453125 0l4.171875 13.265625l-2.859375 0l-0.71875 -2.71875zm-3.0625 -2.234375l2.484375 0l-1.25 -4.71875l-1.234375 4.71875zm15.375275 -6.078125l-3.28125 0l0 11.03125l-2.6875 0l0 -11.03125l-3.21875 0l0 -2.234375l9.1875 0l0 2.234375zm4.3328857 11.03125l-2.671875 0l0 -13.265625l2.671875 0l0 13.265625zm11.593536 -5.4375q0 2.671875 -1.265625 4.15625q-1.265625 1.46875 -3.5 1.46875q-2.234375 0 -3.515625 -1.453125q-1.265625 -1.46875 -1.28125 -4.109375l0 -2.265625q0 -2.734375 1.265625 -4.265625q1.265625 -1.546875 3.515625 -1.546875q2.203125 0 3.484375 1.515625q1.28125 1.5 1.296875 4.234375l0 2.265625zm-2.6875 -2.21875q0 -1.796875 -0.515625 -2.671875q-0.5 -0.875 -1.578125 -0.875q-1.0625 0 -1.578125 0.84375q-0.515625 0.84375 -0.53125 2.5625l0 2.359375q0 1.734375 0.515625 2.5625q0.53125 0.828125 1.609375 0.828125q1.046875 0 1.546875 -0.796875q0.515625 -0.8125 0.53125 -2.515625l0 -2.296875zm13.884338 7.65625l-2.6875 0l-3.90625 -8.703125l0 8.703125l-2.6875 0l0 -13.265625l2.6875 0l3.921875 8.703125l0 -8.703125l2.671875 0l0 13.265625zm7.7514343 -3.484375q0 -0.8125 -0.421875 -1.21875q-0.40625 -0.421875 -1.5 -0.859375q-2.0 -0.765625 -2.875 -1.78125q-0.875 -1.015625 -0.875 -2.390625q0 -1.6875 1.1875 -2.703125q1.1875 -1.015625 3.015625 -1.015625q1.234375 0 2.1875 0.515625q0.953125 0.515625 1.46875 1.453125q0.515625 0.9375 0.515625 2.140625l-2.671875 0q0 -0.9375 -0.40625 -1.421875q-0.390625 -0.484375 -1.125 -0.484375q-0.703125 0 -1.09375 0.421875q-0.390625 0.40625 -0.390625 1.109375q0 0.546875 0.4375 0.984375q0.4375 0.4375 1.546875 0.921875q1.9375 0.703125 2.8125 1.71875q0.875 1.015625 0.875 2.59375q0 1.734375 -1.109375 2.71875q-1.09375 0.96875 -2.984375 0.96875q-1.28125 0 -2.34375 -0.53125q-1.046875 -0.53125 -1.65625 -1.515625q-0.59375 -0.984375 -0.59375 -2.328125l2.6875 0q0 1.15625 0.4375 1.671875q0.453125 0.515625 1.46875 0.515625q1.40625 0 1.40625 -1.484375z" fill-rule="nonzero"/><path fill="#000000" d="m299.65344 474.73547q0 2.671875 -1.265625 4.15625q-1.265625 1.46875 -3.5 1.46875q-2.234375 0 -3.515625 -1.453125q-1.265625 -1.46875 -1.28125 -4.109375l0 -2.265625q0 -2.734375 1.265625 -4.265625q1.265625 -1.546875 3.515625 -1.546875q2.203125 0 3.484375 1.515625q1.28125 1.5 1.296875 4.234375l0 2.265625zm-2.6875 -2.21875q0 -1.796875 -0.515625 -2.671875q-0.5 -0.875 -1.578125 -0.875q-1.0625 0 -1.578125 0.84375q-0.515625 0.84375 -0.53125 2.5625l0 2.359375q0 1.734375 0.515625 2.5625q0.53125 0.828125 1.609375 0.828125q1.046875 0 1.546875 -0.796875q0.515625 -0.8125 0.53125 -2.515625l0 -2.296875zm7.2905884 2.984375l0 4.671875l-2.6875 0l0 -13.265625l4.515625 0q1.96875 0 3.140625 1.21875q1.171875 1.21875 1.171875 3.171875q0 1.953125 -1.15625 3.078125q-1.15625 1.125 -3.203125 1.125l-1.78125 0zm0 -2.21875l1.828125 0q0.765625 0 1.1875 -0.5q0.421875 -0.5 0.421875 -1.46875q0 -0.984375 -0.4375 -1.5625q-0.421875 -0.59375 -1.140625 -0.609375l-1.859375 0l0 4.140625zm14.784454 1.15625l-4.171875 0l0 3.515625l4.9375 0l0 2.21875l-7.625 0l0 -13.265625l7.59375 0l0 2.234375l-4.90625 0l0 3.140625l4.171875 0l0 2.15625zm11.576904 5.734375l-2.6875 0l-3.90625 -8.703125l0 8.703125l-2.6875 0l0 -13.265625l2.6875 0l3.921875 8.703125l0 -8.703125l2.671875 0l0 13.265625z" fill-rule="nonzero"/><path fill="#000000" fill-opacity="0.0" d="m385.2826 37.293972l185.35431 0l0 26.614174l-185.35431 0z" fill-rule="evenodd"/><path fill="#000000" d="m443.55157 52.49522l-3.640625 0l-0.71875 2.71875l-2.828125 0l4.140625 -13.265625l2.453125 0l4.171875 13.265625l-2.859375 0l-0.71875 -2.71875zm-3.0625 -2.234375l2.484375 0l-1.25 -4.71875l-1.234375 4.71875zm7.875305 4.953125l0 -13.265625l4.109375 0q2.0625 0 3.140625 0.921875q1.09375 0.921875 1.09375 2.71875q0 1.0 -0.453125 1.734375q-0.4375 0.734375 -1.21875 1.0625q0.890625 0.265625 1.375 1.03125q0.484375 0.765625 0.484375 1.890625q0 1.9375 -1.0625 2.921875q-1.0625 0.984375 -3.078125 0.984375l-4.390625 0zm2.6875 -5.765625l0 3.546875l1.703125 0q0.71875 0 1.09375 -0.4375q0.375 -0.453125 0.375 -1.28125q0 -1.78125 -1.296875 -1.828125l-1.875 0zm0 -1.953125l1.390625 0q1.578125 0 1.578125 -1.625q0 -0.90625 -0.375 -1.296875q-0.359375 -0.390625 -1.171875 -0.390625l-1.421875 0l0 3.3125zm13.388672 4.234375q0 -0.8125 -0.421875 -1.21875q-0.40625 -0.421875 -1.5 -0.859375q-2.0 -0.765625 -2.875 -1.78125q-0.875 -1.015625 -0.875 -2.390625q0 -1.6875 1.1875 -2.703125q1.1875 -1.015625 3.015625 -1.015625q1.234375 0 2.1875 0.515625q0.953125 0.515625 1.46875 1.453125q0.515625 0.9375 0.515625 2.140625l-2.671875 0q0 -0.9375 -0.40625 -1.421875q-0.390625 -0.484375 -1.125 -0.484375q-0.703125 0 -1.09375 0.421875q-0.390625 0.40625 -0.390625 1.109375q0 0.546875 0.4375 0.984375q0.4375 0.4375 1.546875 0.921875q1.9375 0.703125 2.8125 1.71875q0.875 1.015625 0.875 2.59375q0 1.734375 -1.109375 2.71875q-1.09375 0.96875 -2.984375 0.96875q-1.28125 0 -2.34375 -0.53125q-1.046875 -0.53125 -1.65625 -1.515625q-0.59375 -0.984375 -0.59375 -2.328125l2.6875 0q0 1.15625 0.4375 1.671875q0.453125 0.515625 1.46875 0.515625q1.40625 0 1.40625 -1.484375zm13.059479 -7.546875l-3.28125 0l0 11.03125l-2.6875 0l0 -11.03125l-3.21875 0l0 -2.234375l9.1875 0l0 2.234375zm5.5516357 6.1875l-1.328125 0l0 4.84375l-2.671875 0l0 -13.265625l4.265625 0q2.015625 0 3.109375 1.046875q1.109375 1.046875 1.109375 2.96875q0 2.640625 -1.921875 3.6875l2.3125 5.4375l0 0.125l-2.875 0l-2.0 -4.84375zm-1.328125 -2.234375l1.53125 0q0.796875 0 1.1875 -0.53125q0.40625 -0.53125 0.40625 -1.421875q0 -2.0 -1.5625 -2.0l-1.5625 0l0 3.953125zm13.970795 4.359375l-3.640625 0l-0.71875 2.71875l-2.828125 0l4.140625 -13.265625l2.453125 0l4.171875 13.265625l-2.859375 0l-0.71875 -2.71875zm-3.0625 -2.234375l2.484375 0l-1.25 -4.71875l-1.234375 4.71875zm16.683899 0.53125q-0.109375 2.265625 -1.28125 3.4375q-1.171875 1.171875 -3.3125 1.171875q-2.25 0 -3.453125 -1.484375q-1.203125 -1.484375 -1.203125 -4.21875l0 -2.234375q0 -2.734375 1.234375 -4.21875q1.25 -1.484375 3.453125 -1.484375q2.171875 0 3.296875 1.21875q1.125 1.21875 1.28125 3.484375l-2.6875 0q-0.046875 -1.40625 -0.4375 -1.9375q-0.390625 -0.53125 -1.453125 -0.53125q-1.078125 0 -1.53125 0.75q-0.4375 0.75 -0.46875 2.46875l0 2.5q0 1.984375 0.4375 2.71875q0.453125 0.734375 1.53125 0.734375q1.046875 0 1.453125 -0.5q0.40625 -0.515625 0.453125 -1.875l2.6875 0zm9.969299 -6.609375l-3.28125 0l0 11.03125l-2.6875 0l0 -11.03125l-3.21875 0l0 -2.234375l9.1875 0l0 2.234375z" fill-rule="nonzero"/><path fill="#000000" d="m395.38132 73.72959q0 -0.8125 -0.421875 -1.21875q-0.40625 -0.421875 -1.5 -0.859375q-2.0 -0.765625 -2.875 -1.78125q-0.875 -1.015625 -0.875 -2.390625q0 -1.6875 1.1875 -2.703125q1.1875 -1.0156212 3.015625 -1.0156212q1.234375 0 2.1875 0.5156212q0.953125 0.515625 1.46875 1.453125q0.515625 0.9375 0.515625 2.140625l-2.671875 0q0 -0.9375 -0.40625 -1.421875q-0.390625 -0.484375 -1.125 -0.484375q-0.703125 0 -1.09375 0.421875q-0.390625 0.40625 -0.390625 1.109375q0 0.546875 0.4375 0.984375q0.4375 0.4375 1.546875 0.921875q1.9375 0.703125 2.8125 1.71875q0.875 1.015625 0.875 2.59375q0 1.734375 -1.109375 2.71875q-1.09375 0.96875 -2.984375 0.96875q-1.28125 0 -2.34375 -0.53125q-1.046875 -0.53125 -1.65625 -1.515625q-0.59375 -0.984375 -0.59375 -2.328125l2.6875 0q0 1.15625 0.4375 1.671875q0.453125 0.515625 1.46875 0.515625q1.40625 0 1.40625 -1.484375zm13.090729 -9.781246l0 9.187496q-0.015625 2.0625 -1.140625 3.171875q-1.109375 1.09375 -3.203125 1.09375q-2.140625 0 -3.265625 -1.109375q-1.125 -1.125 -1.125 -3.21875l0 -9.124996l2.703125 0l0 9.124996q0 1.140625 0.359375 1.625q0.359375 0.46875 1.3125 0.46875q0.96875 0 1.3125 -0.46875q0.359375 -0.484375 0.375 -1.578125l0 -9.171871l2.671875 0zm2.0331116 13.265621l0 -13.265621l4.109375 0q2.0625 0 3.140625 0.9218712q1.09375 0.921875 1.09375 2.71875q0 1.0 -0.453125 1.734375q-0.4375 0.734375 -1.21875 1.0625q0.890625 0.265625 1.375 1.03125q0.484375 0.765625 0.484375 1.890625q0 1.9375 -1.0625 2.921875q-1.0625 0.984375 -3.078125 0.984375l-4.390625 0zm2.6875 -5.765625l0 3.546875l1.703125 0q0.71875 0 1.09375 -0.4375q0.375 -0.453125 0.375 -1.28125q0 -1.78125 -1.296875 -1.828125l-1.875 0zm0 -1.953125l1.390625 0q1.578125 0 1.578125 -1.625q0 -0.90625 -0.375 -1.296875q-0.359375 -0.390625 -1.171875 -0.390625l-1.421875 0l0 3.3125zm11.279327 -5.546871l2.5 9.593746l2.5 -9.593746l3.5 0l0 13.265621l-2.6875 0l0 -3.59375l0.25 -5.53125l-2.65625 9.125l-1.8125 0l-2.65625 -9.125l0.25 5.53125l0 3.59375l-2.6875 0l0 -13.265621l3.5 0zm13.443909 13.265621l-2.671875 0l0 -13.265621l2.671875 0l0 13.265621zm7.8591614 -3.484375q0 -0.8125 -0.421875 -1.21875q-0.40625 -0.421875 -1.5 -0.859375q-2.0 -0.765625 -2.875 -1.78125q-0.875 -1.015625 -0.875 -2.390625q0 -1.6875 1.1875 -2.703125q1.1875 -1.0156212 3.015625 -1.0156212q1.234375 0 2.1875 0.5156212q0.953125 0.515625 1.46875 1.453125q0.515625 0.9375 0.515625 2.140625l-2.671875 0q0 -0.9375 -0.40625 -1.421875q-0.390625 -0.484375 -1.125 -0.484375q-0.703125 0 -1.09375 0.421875q-0.390625 0.40625 -0.390625 1.109375q0 0.546875 0.4375 0.984375q0.4375 0.4375 1.546875 0.921875q1.9375 0.703125 2.8125 1.71875q0.875 1.015625 0.875 2.59375q0 1.734375 -1.109375 2.71875q-1.09375 0.96875 -2.984375 0.96875q-1.28125 0 -2.34375 -0.53125q-1.046875 -0.53125 -1.65625 -1.515625q-0.59375 -0.984375 -0.59375 -2.328125l2.6875 0q0 1.15625 0.4375 1.671875q0.453125 0.515625 1.46875 0.515625q1.40625 0 1.40625 -1.484375zm10.075104 0q0 -0.8125 -0.421875 -1.21875q-0.40625 -0.421875 -1.5 -0.859375q-2.0 -0.765625 -2.875 -1.78125q-0.875 -1.015625 -0.875 -2.390625q0 -1.6875 1.1875 -2.703125q1.1875 -1.0156212 3.015625 -1.0156212q1.234375 0 2.1875 0.5156212q0.953125 0.515625 1.46875 1.453125q0.515625 0.9375 0.515625 2.140625l-2.671875 0q0 -0.9375 -0.40625 -1.421875q-0.390625 -0.484375 -1.125 -0.484375q-0.703125 0 -1.09375 0.421875q-0.390625 0.40625 -0.390625 1.109375q0 0.546875 0.4375 0.984375q0.4375 0.4375 1.546875 0.921875q1.9375 0.703125 2.8125 1.71875q0.875 1.015625 0.875 2.59375q0 1.734375 -1.109375 2.71875q-1.09375 0.96875 -2.984375 0.96875q-1.28125 0 -2.34375 -0.53125q-1.046875 -0.53125 -1.65625 -1.515625q-0.59375 -0.984375 -0.59375 -2.328125l2.6875 0q0 1.15625 0.4375 1.671875q0.453125 0.515625 1.46875 0.515625q1.40625 0 1.40625 -1.484375zm7.2626038 3.484375l-2.671875 0l0 -13.265621l2.671875 0l0 13.265621zm11.593536 -5.4375q0 2.671875 -1.265625 4.15625q-1.265625 1.46875 -3.5 1.46875q-2.234375 0 -3.515625 -1.453125q-1.265625 -1.46875 -1.28125 -4.109375l0 -2.265625q0 -2.734375 1.265625 -4.265625q1.265625 -1.5468712 3.515625 -1.5468712q2.203125 0 3.484375 1.5156212q1.28125 1.5 1.296875 4.234375l0 2.265625zm-2.6875 -2.21875q0 -1.796875 -0.515625 -2.671875q-0.5 -0.875 -1.578125 -0.875q-1.0625 0 -1.578125 0.84375q-0.515625 0.84375 -0.53125 2.5625l0 2.359375q0 1.734375 0.515625 2.5625q0.53125 0.828125 1.609375 0.828125q1.046875 0 1.546875 -0.796875q0.515625 -0.8125 0.53125 -2.515625l0 -2.296875zm13.884338 7.65625l-2.6875 0l-3.90625 -8.703125l0 8.703125l-2.6875 0l0 -13.265621l2.6875 0l3.921875 8.703121l0 -8.703121l2.671875 0l0 13.265621zm6.441742 0l0 -13.265621l3.515625 0q2.3125 0 3.6875 1.4843712q1.390625 1.46875 1.421875 4.03125l0 2.15625q0 2.609375 -1.390625 4.109375q-1.375 1.484375 -3.796875 1.484375l-3.4375 0zm2.6875 -11.03125l0 8.8125l0.796875 0q1.34375 0 1.890625 -0.703125q0.546875 -0.71875 0.5625 -2.4375l0 -2.3125q0 -1.859375 -0.515625 -2.59375q-0.515625 -0.734375 -1.765625 -0.765625l-0.96875 0zm14.711578 5.296875l-4.171875 0l0 3.515625l4.9375 0l0 2.21875l-7.625 0l0 -13.265621l7.59375 0l0 2.2343712l-4.90625 0l0 3.140625l4.171875 0l0 2.15625zm8.623779 3.015625l-3.640625 0l-0.71875 2.71875l-2.828125 0l4.140625 -13.265621l2.453125 0l4.171875 13.265621l-2.859375 0l-0.71875 -2.71875zm-3.0625 -2.234375l2.484375 0l-1.25 -4.71875l-1.234375 4.71875zm7.875305 4.953125l0 -13.265621l3.515625 0q2.3125 0 3.6875 1.4843712q1.390625 1.46875 1.421875 4.03125l0 2.15625q0 2.609375 -1.390625 4.109375q-1.375 1.484375 -3.796875 1.484375l-3.4375 0zm2.6875 -11.03125l0 8.8125l0.796875 0q1.34375 0 1.890625 -0.703125q0.546875 -0.71875 0.5625 -2.4375l0 -2.3125q0 -1.859375 -0.515625 -2.59375q-0.515625 -0.734375 -1.765625 -0.765625l-0.96875 0zm10.539673 8.8125l4.6875 0l0 2.21875l-7.375 0l0 -13.265621l2.6875 0l0 11.046871zm9.036682 2.21875l-2.671875 0l0 -13.265621l2.671875 0l0 13.265621zm11.531067 0l-2.6875 0l-3.90625 -8.703125l0 8.703125l-2.6875 0l0 -13.265621l2.6875 0l3.921875 8.703121l0 -8.703121l2.671875 0l0 13.265621zm9.001404 -5.734375l-4.171875 0l0 3.515625l4.9375 0l0 2.21875l-7.625 0l0 -13.265621l7.59375 0l0 2.2343712l-4.90625 0l0 3.140625l4.171875 0l0 2.15625z" fill-rule="nonzero"/><path fill="#000000" fill-opacity="0.0" d="m602.0872 440.253l153.7008 0l0 26.614166l-153.7008 0z" fill-rule="evenodd"/><path fill="#000000" d="m642.1254 454.6886q0 -0.8125 -0.421875 -1.21875q-0.40625 -0.421875 -1.5 -0.859375q-2.0 -0.765625 -2.875 -1.78125q-0.875 -1.015625 -0.875 -2.390625q0 -1.6875 1.1875 -2.703125q1.1875 -1.015625 3.015625 -1.015625q1.234375 0 2.1875 0.515625q0.953125 0.515625 1.46875 1.453125q0.515625 0.9375 0.515625 2.140625l-2.671875 0q0 -0.9375 -0.40625 -1.421875q-0.390625 -0.484375 -1.125 -0.484375q-0.703125 0 -1.09375 0.421875q-0.390625 0.40625 -0.390625 1.109375q0 0.546875 0.4375 0.984375q0.4375 0.4375 1.546875 0.921875q1.9375 0.703125 2.8125 1.71875q0.875 1.015625 0.875 2.59375q0 1.734375 -1.109375 2.71875q-1.09375 0.96875 -2.984375 0.96875q-1.28125 0 -2.34375 -0.53125q-1.046875 -0.53125 -1.65625 -1.515625q-0.59375 -0.984375 -0.59375 -2.328125l2.6875 0q0 1.15625 0.4375 1.671875q0.453125 0.515625 1.46875 0.515625q1.40625 0 1.40625 -1.484375zm13.762634 3.484375l-2.65625 0l0 -5.671875l-3.953125 0l0 5.671875l-2.6875 0l0 -13.265625l2.6875 0l0 5.375l3.953125 0l0 -5.375l2.65625 0l0 13.265625zm11.497498 -5.4375q0 2.671875 -1.265625 4.15625q-1.265625 1.46875 -3.5 1.46875q-2.234375 0 -3.515625 -1.453125q-1.265625 -1.46875 -1.28125 -4.109375l0 -2.265625q0 -2.734375 1.265625 -4.265625q1.265625 -1.546875 3.515625 -1.546875q2.203125 0 3.484375 1.515625q1.28125 1.5 1.296875 4.234375l0 2.265625zm-2.6875 -2.21875q0 -1.796875 -0.515625 -2.671875q-0.5 -0.875 -1.578125 -0.875q-1.0625 0 -1.578125 0.84375q-0.515625 0.84375 -0.53125 2.5625l0 2.359375q0 1.734375 0.515625 2.5625q0.53125 0.828125 1.609375 0.828125q1.046875 0 1.546875 -0.796875q0.515625 -0.8125 0.53125 -2.515625l0 -2.296875zm8.618713 2.8125l-1.328125 0l0 4.84375l-2.671875 0l0 -13.265625l4.265625 0q2.015625 0 3.109375 1.046875q1.109375 1.046875 1.109375 2.96875q0 2.640625 -1.921875 3.6875l2.3125 5.4375l0 0.125l-2.875 0l-2.0 -4.84375zm-1.328125 -2.234375l1.53125 0q0.796875 0 1.1875 -0.53125q0.40625 -0.53125 0.40625 -1.421875q0 -2.0 -1.5625 -2.0l-1.5625 0l0 3.953125zm15.780701 -3.953125l-3.28125 0l0 11.03125l-2.6875 0l0 -11.03125l-3.21875 0l0 -2.234375l9.1875 0l0 2.234375zm4.2235107 8.8125l4.6875 0l0 2.21875l-7.375 0l0 -13.265625l2.6875 0l0 11.046875zm9.036682 2.21875l-2.671875 0l0 -13.265625l2.671875 0l0 13.265625zm7.859131 -3.484375q0 -0.8125 -0.421875 -1.21875q-0.40625 -0.421875 -1.5 -0.859375q-2.0 -0.765625 -2.875 -1.78125q-0.875 -1.015625 -0.875 -2.390625q0 -1.6875 1.1875 -2.703125q1.1875 -1.015625 3.015625 -1.015625q1.234375 0 2.1875 0.515625q0.953125 0.515625 1.46875 1.453125q0.515625 0.9375 0.515625 2.140625l-2.671875 0q0 -0.9375 -0.40625 -1.421875q-0.390625 -0.484375 -1.125 -0.484375q-0.703125 0 -1.09375 0.421875q-0.390625 0.40625 -0.390625 1.109375q0 0.546875 0.4375 0.984375q0.4375 0.4375 1.546875 0.921875q1.9375 0.703125 2.8125 1.71875q0.875 1.015625 0.875 2.59375q0 1.734375 -1.109375 2.71875q-1.09375 0.96875 -2.984375 0.96875q-1.28125 0 -2.34375 -0.53125q-1.046875 -0.53125 -1.65625 -1.515625q-0.59375 -0.984375 -0.59375 -2.328125l2.6875 0q0 1.15625 0.4375 1.671875q0.453125 0.515625 1.46875 0.515625q1.40625 0 1.40625 -1.484375zm13.059509 -7.546875l-3.28125 0l0 11.03125l-2.6875 0l0 -11.03125l-3.21875 0l0 -2.234375l9.1875 0l0 2.234375z" fill-rule="nonzero"/><path fill="#000000" d="m637.4968 477.45422l-3.640625 0l-0.71875 2.71875l-2.828125 0l4.140625 -13.265625l2.453125 0l4.171875 13.265625l-2.859375 0l-0.71875 -2.71875zm-3.0625 -2.234375l2.484375 0l-1.25 -4.71875l-1.234375 4.71875zm17.156494 4.953125l-2.6875 0l-3.90625 -8.703125l0 8.703125l-2.6875 0l0 -13.265625l2.6875 0l3.921875 8.703125l0 -8.703125l2.671875 0l0 13.265625zm11.42334 0l-2.6875 0l-3.90625 -8.703125l0 8.703125l-2.6875 0l0 -13.265625l2.6875 0l3.921875 8.703125l0 -8.703125l2.671875 0l0 13.265625zm11.485779 -5.4375q0 2.671875 -1.265625 4.15625q-1.265625 1.46875 -3.5 1.46875q-2.234375 0 -3.515625 -1.453125q-1.265625 -1.46875 -1.28125 -4.109375l0 -2.265625q0 -2.734375 1.265625 -4.265625q1.265625 -1.546875 3.515625 -1.546875q2.203125 0 3.484375 1.515625q1.28125 1.5 1.296875 4.234375l0 2.265625zm-2.6875 -2.21875q0 -1.796875 -0.515625 -2.671875q-0.5 -0.875 -1.578125 -0.875q-1.0625 0 -1.578125 0.84375q-0.515625 0.84375 -0.53125 2.5625l0 2.359375q0 1.734375 0.515625 2.5625q0.53125 0.828125 1.609375 0.828125q1.046875 0 1.546875 -0.796875q0.515625 -0.8125 0.53125 -2.515625l0 -2.296875zm13.228088 -5.609375l0 9.1875q-0.015625 2.0625 -1.140625 3.171875q-1.109375 1.09375 -3.203125 1.09375q-2.140625 0 -3.265625 -1.109375q-1.125 -1.125 -1.125 -3.21875l0 -9.125l2.703125 0l0 9.125q0 1.140625 0.359375 1.625q0.359375 0.46875 1.3125 0.46875q0.96875 0 1.3125 -0.46875q0.359375 -0.484375 0.375 -1.578125l0 -9.171875l2.671875 0zm11.314392 13.265625l-2.6875 0l-3.90625 -8.703125l0 8.703125l-2.6875 0l0 -13.265625l2.6875 0l3.921875 8.703125l0 -8.703125l2.671875 0l0 13.265625zm11.142029 -4.421875q-0.109375 2.265625 -1.28125 3.4375q-1.171875 1.171875 -3.3125 1.171875q-2.25 0 -3.453125 -1.484375q-1.203125 -1.484375 -1.203125 -4.21875l0 -2.234375q0 -2.734375 1.234375 -4.21875q1.25 -1.484375 3.453125 -1.484375q2.171875 0 3.296875 1.21875q1.125 1.21875 1.28125 3.484375l-2.6875 0q-0.046875 -1.40625 -0.4375 -1.9375q-0.390625 -0.53125 -1.453125 -0.53125q-1.078125 0 -1.53125 0.75q-0.4375 0.75 -0.46875 2.46875l0 2.5q0 1.984375 0.4375 2.71875q0.453125 0.734375 1.53125 0.734375q1.046875 0 1.453125 -0.5q0.40625 -0.515625 0.453125 -1.875l2.6875 0zm8.499268 -1.3125l-4.171875 0l0 3.515625l4.9375 0l0 2.21875l-7.625 0l0 -13.265625l7.59375 0l0 2.234375l-4.90625 0l0 3.140625l4.171875 0l0 2.15625zm2.2957153 5.734375l0 -13.265625l3.515625 0q2.3125 0 3.6875 1.484375q1.390625 1.46875 1.421875 4.03125l0 2.15625q0 2.609375 -1.390625 4.109375q-1.375 1.484375 -3.796875 1.484375l-3.4375 0zm2.6875 -11.03125l0 8.8125l0.796875 0q1.34375 0 1.890625 -0.703125q0.546875 -0.71875 0.5625 -2.4375l0 -2.3125q0 -1.859375 -0.515625 -2.59375q-0.515625 -0.734375 -1.765625 -0.765625l-0.96875 0z" fill-rule="nonzero"/><path fill="#010000" fill-opacity="0.0" d="m727.7691 462.86493l0 0l0 21.862793l0 0l0 -21.862793z" fill-rule="nonzero"/><path fill="#000000" fill-opacity="0.0" d="m763.18134 37.293972l185.35431 0l0 26.614174l-185.35431 0z" fill-rule="evenodd"/><path fill="#000000" d="m838.1902 41.948345l0 9.1875q-0.015625 2.0625 -1.140625 3.171875q-1.109375 1.09375 -3.203125 1.09375q-2.140625 0 -3.265625 -1.109375q-1.125 -1.125 -1.125 -3.21875l0 -9.125l2.703125 0l0 9.125q0 1.140625 0.359375 1.625q0.359375 0.46875 1.3125 0.46875q0.96875 0 1.3125 -0.46875q0.359375 -0.484375 0.375 -1.578125l0 -9.171875l2.671875 0zm2.033142 13.265625l0 -13.265625l3.515625 0q2.3125 0 3.6875 1.484375q1.390625 1.46875 1.421875 4.03125l0 2.15625q0 2.609375 -1.390625 4.109375q-1.375 1.484375 -3.796875 1.484375l-3.4375 0zm2.6875 -11.03125l0 8.8125l0.796875 0q1.34375 0 1.890625 -0.703125q0.546875 -0.71875 0.5625 -2.4375l0 -2.3125q0 -1.859375 -0.515625 -2.59375q-0.515625 -0.734375 -1.765625 -0.765625l-0.96875 0zm13.988892 8.3125l-3.640625 0l-0.71875 2.71875l-2.828125 0l4.140625 -13.265625l2.453125 0l4.171875 13.265625l-2.859375 0l-0.71875 -2.71875zm-3.0625 -2.234375l2.484375 0l-1.25 -4.71875l-1.234375 4.71875zm14.20343 2.234375l-3.640625 0l-0.71875 2.71875l-2.828125 0l4.140625 -13.265625l2.453125 0l4.171875 13.265625l-2.859375 0l-0.71875 -2.71875zm-3.0625 -2.234375l2.484375 0l-1.25 -4.71875l-1.234375 4.71875zm17.156555 4.953125l-2.6875 0l-3.90625 -8.703125l0 8.703125l-2.6875 0l0 -13.265625l2.6875 0l3.921875 8.703125l0 -8.703125l2.671875 0l0 13.265625z" fill-rule="nonzero"/><path fill="#000000" d="m835.9397 71.80772l-4.15625 0l0 5.40625l-2.6875 0l0 -13.265621l7.34375 0l0 2.2343712l-4.65625 0l0 3.390625l4.15625 0l0 2.234375zm4.8258057 5.40625l-2.671875 0l0 -13.265621l2.671875 0l0 13.265621zm11.531006 0l-2.6875 0l-3.90625 -8.703125l0 8.703125l-2.6875 0l0 -13.265621l2.6875 0l3.921875 8.703121l0 -8.703121l2.671875 0l0 13.265621zm8.634277 -2.71875l-3.640625 0l-0.71875 2.71875l-2.828125 0l4.140625 -13.265621l2.453125 0l4.171875 13.265621l-2.859375 0l-0.71875 -2.71875zm-3.0625 -2.234375l2.484375 0l-1.25 -4.71875l-1.234375 4.71875zm10.562805 2.734375l4.6875 0l0 2.21875l-7.375 0l0 -13.265621l2.6875 0l0 11.046871zm11.849182 -1.265625q0 -0.8125 -0.421875 -1.21875q-0.40625 -0.421875 -1.5 -0.859375q-2.0 -0.765625 -2.875 -1.78125q-0.875 -1.015625 -0.875 -2.390625q0 -1.6875 1.1875 -2.703125q1.1875 -1.0156212 3.015625 -1.0156212q1.234375 0 2.1875 0.5156212q0.953125 0.515625 1.46875 1.453125q0.515625 0.9375 0.515625 2.140625l-2.671875 0q0 -0.9375 -0.40625 -1.421875q-0.390625 -0.484375 -1.125 -0.484375q-0.703125 0 -1.09375 0.421875q-0.390625 0.40625 -0.390625 1.109375q0 0.546875 0.4375 0.984375q0.4375 0.4375 1.546875 0.921875q1.9375 0.703125 2.8125 1.71875q0.875 1.015625 0.875 2.59375q0 1.734375 -1.109375 2.71875q-1.09375 0.96875 -2.984375 0.96875q-1.28125 0 -2.34375 -0.53125q-1.046875 -0.53125 -1.65625 -1.515625q-0.59375 -0.984375 -0.59375 -2.328125l2.6875 0q0 1.15625 0.4375 1.671875q0.453125 0.515625 1.46875 0.515625q1.40625 0 1.40625 -1.484375z" fill-rule="nonzero"/><path fill="#8e1b1b" fill-opacity="0.9551" d="m130.1821 292.19464c-0.764801 0 -3.8240128 -3.0176392 -3.8240128 -3.7720642c-3.059204 3.0176392 -3.059204 3.0176392 -3.059204 3.0176392c6.883217 6.789673 6.883217 6.789673 6.883217 6.789673c0 0.75442505 0.764801 1.5088196 0.764801 2.2632446c0 1.5088196 -2.294403 3.0176086 -3.8240128 3.0176086c-0.764801 0 -1.529602 0 -2.294403 -0.75439453c-20.649643 -20.369019 -20.649643 -20.369019 -20.649643 -20.369019c-3.059204 2.263214 -6.883217 4.526428 -10.707222 4.526428c-6.883217 0 -11.472023 -4.526428 -11.472023 -11.316101c0 -9.807312 9.942421 -20.369034 19.884842 -20.369034c6.883209 0 11.472023 4.5264435 11.472023 11.316116c0 4.5264587 -1.529602 8.298492 -3.8240128 11.316132c10.707222 10.561707 10.707222 10.561707 10.707222 10.561707c3.0592117 -3.0176086 3.0592117 -3.0176086 3.0592117 -3.0176086c-0.764801 -0.75442505 -3.8240128 -3.0176392 -3.8240128 -3.7720642c0 -0.75439453 3.0592117 -3.0176392 3.8240128 -3.0176392c0 0 0 0 0.764801 0c0.764801 0.75442505 9.17762 9.0529175 9.17762 9.807312c0 0.75442505 -2.294403 3.7720642 -3.059204 3.7720642zm-29.062462 -30.930756c-3.0592117 0 -5.353615 3.0176392 -5.353615 6.0352783c0 0.75439453 0 1.5088196 0.764801 2.263214c-1.529602 0 -2.294403 -0.75439453 -3.059204 -0.75439453c-3.059204 0 -6.118416 3.0176086 -6.118416 6.035248c0 3.0176392 3.0592117 6.0352783 6.118416 6.0352783c3.059204 0 6.118408 -3.0176392 6.118408 -6.0352783c0 -0.75439453 0 -1.5088196 -0.764801 -2.263214c0.764801 0 1.5296097 0.75439453 2.2944107 0.75439453c3.8240051 0 6.118408 -3.0176392 6.118408 -6.035248c0 -3.0176392 -2.294403 -6.0352783 -6.118408 -6.0352783z" fill-rule="evenodd"/><path fill="#8e1b1b" fill-opacity="0.9551" d="m300.90836 270.70294c-28.527496 0 -28.527496 0 -28.527496 0c-0.6386719 0 -1.2773438 0.7451477 -1.2773438 1.4902954c0 0.7451477 0.6386719 1.4902954 1.2773438 1.4902954c28.527496 0 28.527496 0 28.527496 0c0.6386719 0 1.2773743 -0.7451477 1.2773743 -1.4902954c-0.21289062 -0.7451477 -0.6387024 -1.4902954 -1.2773743 -1.4902954zm0 0c0 0 0 0 0 0" fill-rule="evenodd"/><path fill="#8e1b1b" fill-opacity="0.9551" d="m307.3205 294.31476c-0.21313477 -0.25408936 -0.42626953 -0.76223755 -0.42626953 -1.0162964c-39.42868 0 -39.42868 0 -39.42868 0c0 -43.70073 0 -43.70073 0 -43.70073c47.953796 0 47.953796 0 47.953796 0c0 36.078506 0 36.078506 0 36.078506c0 0 0 0 0 0c0.6393738 -0.5081482 1.4919128 -0.76223755 2.3444214 -0.76223755c0.426239 0 1.2787476 0 2.131256 0.76223755c0.21313477 0 0.6394043 -0.25408936 0.85253906 -0.25408936c1.2787476 0 2.3443909 0.5081482 3.4100342 1.5244446c0 -37.34886 0 -37.34886 0 -37.34886c0 -2.794815 -1.9181519 -5.081482 -4.2625732 -5.081482c-53.281982 0 -53.281982 0 -53.281982 0c-2.3444214 0 -4.2625732 2.2866669 -4.2625732 5.081482c0 43.70073 0 43.70073 0 43.70073c0 2.7947998 1.9181519 5.081482 4.2625732 5.081482c35.166107 0 35.166107 0 35.166107 0c0 -0.5081482 0 -1.0162964 0 -1.2703857c0.42626953 -1.5244446 1.4919128 -3.0488892 3.8363037 -3.0488892c0.42626953 0 1.0656433 0.25408936 1.7050476 0.25408936zm0 0c0 0 0 0 0 0" fill-rule="evenodd"/><path fill="#8e1b1b" fill-opacity="0.9551" d="m280.67917 265.59335c0.21392822 0 0.42788696 -0.25457764 0.42788696 -0.50912476c0 -10.691269 0 -10.691269 0 -10.691269c0 -0.25456238 -0.21395874 -0.5091095 -0.42788696 -0.5091095c-8.343872 0 -8.343872 0 -8.343872 0c-0.21395874 0 -0.42788696 0.25454712 -0.42788696 0.5091095c0 10.691269 0 10.691269 0 10.691269c0 0.25454712 0.21392822 0.50912476 0.42788696 0.50912476l8.343872 0zm0 0c0 0 0 0 0 0" fill-rule="evenodd"/><path fill="#8e1b1b" fill-opacity="0.9551" d="m300.90836 276.98346c-28.527496 0 -28.527496 0 -28.527496 0c-0.6386719 0 -1.2773438 0.51452637 -1.2773438 1.5435486c0 0.77175903 0.6386719 1.5435486 1.2773438 1.5435486c28.527496 0 28.527496 0 28.527496 0c0.6386719 0 1.2773743 -0.77178955 1.2773743 -1.5435486c-0.21289062 -1.0290222 -0.6387024 -1.5435486 -1.2773743 -1.5435486zm0 0c0 0 0 0 0 0" fill-rule="evenodd"/><path fill="#8e1b1b" fill-opacity="0.9551" d="m300.90836 283.90274c-28.527496 0 -28.527496 0 -28.527496 0c-0.6386719 0 -1.2773438 0.50323486 -1.2773438 1.2580566c0 1.0064392 0.6386719 1.5096436 1.2773438 1.5096436c28.527496 0 28.527496 0 28.527496 0c0.6386719 0 1.2773743 -0.50320435 1.2773743 -1.5096436c-0.21289062 -0.7548218 -0.6387024 -1.2580566 -1.2773743 -1.2580566zm0 0c0 0 0 0 0 0" fill-rule="evenodd"/><path fill="#8e1b1b" fill-opacity="0.9551" d="m326.68024 301.41653c-0.21243286 -5.3381042 -1.9118652 -8.388428 -2.973999 -10.930389c-1.4869995 -3.304535 -4.2485657 -2.0335693 -4.2485657 -2.0335693c-2.124298 -2.2877502 -3.8237305 0.50839233 -3.8237305 0.50839233c-2.3367004 -2.2877502 -3.6112976 1.0167847 -3.6112976 1.0167847c-0.21243286 0.2541809 -4.6734314 -8.388458 -4.8858643 -8.642639c-1.0621338 -2.5419617 -3.611267 -1.2709961 -2.3367004 1.5251465c3.3988647 7.1174927 3.6112976 8.388458 4.8858643 10.93042c0.42486572 1.0167847 3.186432 6.6091003 1.9118652 6.8632812c-1.0621643 0.25421143 -2.336731 -2.7961426 -4.461029 -3.5587463c-3.186432 -1.2709656 -3.611267 1.2709961 -2.3367004 2.0335693c0.21243286 0.25421143 2.124298 1.0167847 3.3988647 4.0671387c0.21243286 0.76257324 2.1242676 1.2709656 2.7615662 1.525177c4.036133 3.0503235 4.6734314 2.2877502 6.160431 2.2877502c1.6994324 0.25421143 2.124298 1.2709656 2.124298 1.2709656c7.8598633 -4.829712 7.8598633 -4.829712 7.8598633 -4.829712c0 0.25421143 -0.21243286 -1.525177 -0.42486572 -2.0335693zm0 0c0 0 0 0 0 0" fill-rule="evenodd"/><path fill="#8e1b1b" fill-opacity="0.9551" d="m690.5459 297.6639c-5.6778564 -7.0904236 -5.6778564 -7.0904236 -5.6778564 -7.0904236c1.7033691 -4.051697 1.1355591 -9.453918 -1.9872437 -13.167969c-3.6905518 -4.3893127 -9.936157 -4.3893127 -13.9105835 0c-3.6906128 4.726959 -3.6906128 12.15506 0 16.882019c3.1227417 3.3763733 7.3811035 4.0516663 11.071716 2.3634644c5.6777954 6.7528076 5.6777954 6.7528076 5.6777954 6.7528076l4.826172 -5.7398987zm-9.936218 -6.4151306c-2.5549927 3.0387573 -6.52948 3.0387573 -9.084473 0c-2.5549927 -3.0387878 -2.5549927 -7.765747 0 -10.804504c2.5549927 -3.0387573 6.52948 -3.0387573 9.084473 0c2.2711182 3.0387573 2.2711182 7.7657166 0 10.804504zm0 0c0 0 0 0 0 0" fill-rule="evenodd"/><path fill="#8e1b1b" fill-opacity="0.9551" d="m676.0811 299.7109c-2.8399658 0 -5.395996 -1.013855 -7.383972 -3.0415344c-21.583862 0 -21.583862 0 -21.583862 0c0 -4.39328 0 -4.39328 0 -4.39328c18.743896 0 18.743896 0 18.743896 0c-0.85198975 -1.3517761 -1.1359863 -3.041504 -1.4199829 -4.3933105c-17.323914 0 -17.323914 0 -17.323914 0c0 -4.39328 0 -4.39328 0 -4.39328c17.323914 0 17.323914 0 17.323914 0c0.28399658 -1.6897278 0.85198975 -3.041504 1.4199829 -4.7312317c-18.743896 0 -18.743896 0 -18.743896 0c0 -4.055359 0 -4.055359 0 -4.055359c21.867859 0 21.867859 0 21.867859 0c1.9879761 -1.6897278 4.5440063 -2.7035522 7.0999756 -2.7035522c2.2719727 0 4.2599487 0.6758728 5.963928 2.027649c0 -28.725372 0 -28.725372 0 -28.725372c-26.979797 0 -26.979797 0 -26.979797 0c0 18.924957 0 18.924957 0 18.924957c-15.05188 0 -15.05188 0 -15.05188 0c0 43.25705 0 43.25705 0 43.25705c42.031677 0 42.031677 0 42.031677 0c0 -5.407135 0 -5.407135 0 -5.407135c-2.2719727 -3.041504 -2.2719727 -3.041504 -2.2719727 -3.041504c-1.1359863 0.33795166 -2.5559692 0.6759033 -3.6919556 0.6759033zm0 0c0 0 0 0 0 0" fill-rule="evenodd"/><path fill="#8e1b1b" fill-opacity="0.9551" d="m651.9381 247.2712l-10.507996 12.802231l10.507996 0l0 -12.802231zm0 0l0 0z" fill-rule="evenodd"/><path fill="#8e1b1b" fill-opacity="0.9551" d="m651.9381 247.2712l-10.507996 12.802231l10.507996 0l0 -12.802231m0 0l0 0" fill-rule="evenodd"/><path fill="#8e1b1b" fill-opacity="0.9551" d="m502.05383 299.6393c-13.896057 0 -13.896057 0 -13.896057 0c0 4.9806824 -3.4740295 8.9652405 -7.816559 8.9652405c-4.342499 0 -7.8165283 -3.984558 -7.8165283 -8.9652405c-13.896057 0 -13.896057 0 -13.896057 0c-2.6054993 0 -4.342499 -1.9922485 -4.342499 -4.980652c4.342499 -3.984558 9.553528 -11.953644 9.553528 -29.884064c0 -6.9729614 5.211029 -13.945908 13.896057 -14.942047c-0.86849976 -0.99612427 -0.86849976 -0.99612427 -0.86849976 -1.9922638c0 -1.992279 1.7369995 -2.9884033 3.473999 -2.9884033c1.73703 0 2.6055298 0.99612427 2.6055298 2.9884033c0 0.9961395 0 0.9961395 0 1.9922638c7.8165283 0.9961395 13.027557 7.9690857 13.027557 14.942047c0 17.93042 5.2109985 25.899506 9.553528 29.884064c0 2.9884033 -1.7369995 4.980652 -3.473999 4.980652zm-21.712616 4.9806824c-2.6054993 0 -4.342499 -2.9884033 -4.342499 -4.9806824c0 -0.99612427 -0.86849976 -0.99612427 -0.86849976 -0.99612427c0 0 -0.86849976 0 -0.86849976 0.99612427c0 2.9884338 2.6054993 5.976837 6.0794983 5.976837c0 0 0 0 0 -0.9961548c0 0 0 0 0 0z" fill-rule="evenodd"/><path fill="#8e1b1b" fill-opacity="0.9551" d="m877.0785 269.16107c0 6.497101 -7.0197144 14.850525 -16.379395 14.850525c-1.5599365 1.8563232 -3.119934 3.712616 -3.119934 3.712616c-1.5599365 1.8563232 -2.3399048 3.7126465 -2.3399048 6.497101c0 1.8563232 0.77996826 4.640808 3.8999023 4.640808c3.119873 0 6.239746 1.8563232 6.239746 5.568939c0 2.7844849 0 2.7844849 0 2.7844849c0 0.9281616 -0.77996826 0.9281616 -0.77996826 0.9281616c-26.519104 0 -26.519104 0 -26.519104 0c-0.77996826 0 -0.77996826 0 -0.77996826 -0.9281616c0 -2.7844849 0 -2.7844849 0 -2.7844849c0 -3.712616 3.119873 -5.568939 6.239807 -5.568939c2.3399048 0 3.8998413 -2.7844849 3.8998413 -4.640808c0 -2.7844543 -0.77996826 -4.6407776 -2.3399048 -6.497101c-0.77996826 0 -1.5599365 -1.8562927 -3.119873 -3.712616c-9.35968 0 -17.159424 -8.353424 -17.159424 -14.850525c0 -4.640808 0 -4.640808 0 -4.640808c0 -2.7844543 1.5599365 -3.712616 3.119873 -3.712616c9.35968 0 9.35968 0 9.35968 0c0 -3.7126465 0 -3.7126465 0 -3.7126465c0 -3.7126312 2.3399048 -6.497101 4.6798706 -6.497101c17.939392 0 17.939392 0 17.939392 0c3.119873 0 5.459778 2.7844696 5.459778 6.497101c0 3.7126465 0 3.7126465 0 3.7126465c8.579712 0 8.579712 0 8.579712 0c2.3399048 0 3.119873 0.9281616 3.119873 3.712616l0 4.640808zm-39.778625 -3.7126465c-7.7997437 0 -7.7997437 0 -7.7997437 0c0 3.7126465 0 3.7126465 0 3.7126465c0 3.712616 3.8999023 8.353424 10.139648 10.209717c-1.5599365 -3.712616 -2.3399048 -8.353424 -2.3399048 -13.922363zm35.878784 0c-7.7997437 0 -7.7997437 0 -7.7997437 0c0 5.568939 -0.77996826 10.209747 -2.3399048 13.922363c6.239807 -1.8562927 10.139648 -6.497101 10.139648 -10.209717l0 -3.7126465z" fill-rule="evenodd"/><path fill="#ffffff" d="m10.338594 508.9512l0 0c0 -10.915222 9.631166 -19.763763 21.51181 -19.763763l0 0c11.880644 0 21.511812 8.848541 21.511812 19.763763l0 0c0 10.915253 -9.631168 19.763763 -21.511812 19.763763l0 0c-11.880644 0 -21.51181 -8.848511 -21.51181 -19.763763z" fill-rule="evenodd"/><path fill="#000000" fill-opacity="0.0" d="m970.87134 466.86176l27.968506 0l0 21.826782l-27.968506 0z" fill-rule="evenodd"/></g></svg>